<?xml version="1.0" encoding="UTF-8" standalone="no"?>
<!-- Created with Inkscape (http://www.inkscape.org/) -->

<svg
   width="100"
   height="30"
   viewBox="0 0 26.458333 7.9374995"
   version="1.1"
   id="svg5"
   inkscape:version="1.1.2 (b8e25be833, 2022-02-05)"
   sodipodi:docname="logo_new.svg"
   xmlns:inkscape="http://www.inkscape.org/namespaces/inkscape"
   xmlns:sodipodi="http://sodipodi.sourceforge.net/DTD/sodipodi-0.dtd"
   xmlns="http://www.w3.org/2000/svg"
   xmlns:svg="http://www.w3.org/2000/svg">
  <sodipodi:namedview
     id="namedview7"
     pagecolor="#000000"
     bordercolor="#666666"
     borderopacity="1.0"
     inkscape:pageshadow="2"
     inkscape:pageopacity="0"
     inkscape:pagecheckerboard="0"
     inkscape:document-units="mm"
     showgrid="false"
     inkscape:zoom="11.313709"
     inkscape:cx="51.839766"
     inkscape:cy="35.841475"
     inkscape:window-width="2560"
     inkscape:window-height="1361"
     inkscape:window-x="-9"
     inkscape:window-y="-9"
     inkscape:window-maximized="1"
     inkscape:current-layer="g51460"
     showguides="true"
     inkscape:guide-bbox="true"
     units="px"
     width="100px">
    <sodipodi:guide
       position="0.66145934,1.3714294"
       orientation="0,1"
       id="guide23680"
       inkscape:label=""
       inkscape:locked="false"
       inkscape:color="rgb(0,0,255)" />
    <sodipodi:guide
       position="25.796875,6.3621518"
       orientation="0,1"
       id="guide25368"
       inkscape:label=""
       inkscape:locked="false"
       inkscape:color="rgb(0,0,255)" />
  </sodipodi:namedview>
  <defs
     id="defs2" />
  <g
     inkscape:label="Layer 1"
     inkscape:groupmode="layer"
     id="layer1">
    <g
       id="g1462"
       transform="matrix(0.83669132,0,0,0.83669132,-17.276704,-249.77483)">
      <text
         xml:space="preserve"
         style="font-style:normal;font-weight:normal;font-size:4.11582px;line-height:1.25;font-family:sans-serif;letter-spacing:0px;word-spacing:0px;fill:#d9d9d9;fill-opacity:1;stroke:none;stroke-width:0.102896"
         x="23.674646"
         y="290.03973"
         id="text4241"><tspan
           sodipodi:role="line"
           id="tspan4239"
           style="fill:#d9d9d9;fill-opacity:1;stroke-width:0.102896"
           x="23.674646"
           y="290.03973" /></text>
      <g
         id="g4148"
         transform="translate(3.1148715,13.151784)">
        <g
           id="g14151"
           transform="matrix(0.92872494,0,0,0.92872494,1.3060825,20.678207)">
          <g
             id="g51460">
            <g
               aria-label="Panzoid"
               id="text60980"
               style="font-size:13.6198px;line-height:1.25;letter-spacing:0px;word-spacing:0px;stroke-width:0.340495"
               transform="matrix(0.69258806,0,0,0.69259364,4.9257099,90.104775)">
              <path
                 d="m 25.965241,286.81451 q 0,0.72185 -0.340495,1.36198 -0.340495,0.64013 -1.089584,1.04872 -0.749089,0.39497 -1.920392,0.39497 h -1.716094 v 3.84079 h -1.552658 v -9.46576 h 3.268752 q 1.089584,0 1.838673,0.38135 0.762709,0.36774 1.130444,1.00787 0.381354,0.64013 0.381354,1.43008 z m -3.350471,1.53903 q 0.885287,0 1.321121,-0.39497 0.435833,-0.4086 0.435833,-1.14406 0,-1.55266 -1.756954,-1.55266 h -1.716094 v 3.09169 z"
                 style="font-weight:500;font-family:Poppins;-inkscape-font-specification:'Poppins Medium';fill:#d9d9d9"
                 id="path66289" />
              <path
                 d="m 26.584825,290.12899 q 0,-0.99904 0.40925,-1.7694 0.421286,-0.77034 1.131455,-1.19164 0.722206,-0.43332 1.588852,-0.43332 0.782389,0 1.360154,0.31296 0.589801,0.30092 0.938867,0.75831 v -0.96294 h 1.384227 v 6.63226 h -1.384227 v -0.98702 q -0.349066,0.46944 -0.950904,0.78239 -0.601838,0.31296 -1.37219,0.31296 -0.85461,0 -1.564779,-0.43333 -0.710169,-0.44536 -1.131455,-1.22775 -0.40925,-0.79442 -0.40925,-1.79348 z m 5.428578,0.024 q 0,-0.68609 -0.288882,-1.19164 -0.276846,-0.50554 -0.734243,-0.77034 -0.457396,-0.26481 -0.987014,-0.26481 -0.529617,0 -0.987014,0.26481 -0.457397,0.25276 -0.746279,0.75831 -0.276845,0.49351 -0.276845,1.1796 0,0.6861 0.276845,1.20367 0.288882,0.51759 0.746279,0.79443 0.469434,0.26482 0.987014,0.26482 0.529618,0 0.987014,-0.26482 0.457397,-0.26481 0.734243,-0.77035 0.288882,-0.51758 0.288882,-1.20368 z"
                 style="font-weight:500;font-family:Poppins;-inkscape-font-specification:'Poppins Medium';fill:#d9d9d9;stroke-width:0.300919"
                 id="path66291" />
              <path
                 d="m 38.549357,286.73463 q 0.782389,0 1.396263,0.32499 0.625911,0.325 0.974977,0.96295 0.349066,0.63794 0.349066,1.5407 v 3.91195 H 39.90951 v -3.70732 q 0,-0.89073 -0.445361,-1.36016 -0.445359,-0.48147 -1.215711,-0.48147 -0.770353,0 -1.22775,0.48147 -0.44536,0.46943 -0.44536,1.36016 v 3.70732 h -1.37219 v -6.63226 h 1.37219 v 0.75832 q 0.33703,-0.40925 0.85461,-0.63795 0.529617,-0.2287 1.119419,-0.2287 z"
                 style="font-weight:500;font-family:Poppins;-inkscape-font-specification:'Poppins Medium';fill:#d9d9d9;stroke-width:0.300919"
                 id="path66293" />
              <path
                 d="m 44.230707,292.3558 h 3.009189 v 1.11942 h -4.59804 v -1.11942 l 3.021226,-4.39342 h -3.021226 v -1.11942 h 4.59804 v 1.11942 z"
                 style="font-weight:500;font-family:Poppins;-inkscape-font-specification:'Poppins Medium';fill:#d9d9d9;stroke-width:0.300919"
                 id="path66295" />
              <path
                 d="m 51.561098,293.58355 q -0.938867,0 -1.697183,-0.42129 -0.758315,-0.43332 -1.191639,-1.20368 -0.433323,-0.78238 -0.433323,-1.80551 0,-1.01109 0.44536,-1.79348 0.445361,-0.78238 1.215713,-1.20367 0.770352,-0.42129 1.721256,-0.42129 0.950903,0 1.721256,0.42129 0.770353,0.42129 1.215712,1.20367 0.445361,0.78239 0.445361,1.79348 0,1.01109 -0.457398,1.79347 -0.457396,0.7824 -1.251822,1.21572 -0.782389,0.42129 -1.733293,0.42129 z m 0,-1.19164 q 0.529617,0 0.987014,-0.25277 0.469434,-0.25278 0.758316,-0.75832 0.288882,-0.50554 0.288882,-1.22775 0,-0.7222 -0.276845,-1.21571 -0.276846,-0.50555 -0.734243,-0.75831 -0.457396,-0.25278 -0.987014,-0.25278 -0.529617,0 -0.987014,0.25278 -0.44536,0.25276 -0.710168,0.75831 -0.264809,0.49351 -0.264809,1.21571 0,1.07128 0.541654,1.66108 0.553691,0.57776 1.384227,0.57776 z"
                 style="font-weight:500;font-family:Poppins;-inkscape-font-specification:'Poppins Medium';fill:#d9d9d9;stroke-width:0.300919"
                 id="path66297" />
              <path
                 d="m 57.061904,285.96428 q -0.373139,0 -0.625911,-0.25277 -0.252772,-0.25278 -0.252772,-0.62591 0,-0.37315 0.252772,-0.62591 0.252772,-0.25278 0.625911,-0.25278 0.361103,0 0.613875,0.25278 0.252772,0.25276 0.252772,0.62591 0,0.37313 -0.252772,0.62591 -0.252772,0.25277 -0.613875,0.25277 z m 0.674059,0.87868 v 6.63226 h -1.37219 v -6.63226 z"
                 style="font-weight:500;font-family:Poppins;-inkscape-font-specification:'Poppins Medium';fill:#d9d9d9;stroke-width:0.300919"
                 id="path66299" />
              <path
                 d="m 59.084079,290.12899 q 0,-0.99904 0.40925,-1.7694 0.421286,-0.77034 1.131455,-1.19164 0.722205,-0.43332 1.600889,-0.43332 0.649984,0 1.275896,0.28889 0.637948,0.27684 1.011088,0.74627 v -3.20177 h 1.384227 v 8.9072 h -1.384227 v -0.99906 q -0.33703,0.48148 -0.938868,0.79443 -0.589801,0.31296 -1.360153,0.31296 -0.866647,0 -1.588852,-0.43333 -0.710169,-0.44536 -1.131455,-1.22775 -0.40925,-0.79442 -0.40925,-1.79348 z m 5.428578,0.024 q 0,-0.68609 -0.288882,-1.19164 -0.276846,-0.50554 -0.734243,-0.77034 -0.457397,-0.26481 -0.987014,-0.26481 -0.529617,0 -0.987014,0.26481 -0.457397,0.25276 -0.746279,0.75831 -0.276845,0.49351 -0.276845,1.1796 0,0.6861 0.276845,1.20367 0.288882,0.51759 0.746279,0.79443 0.469434,0.26482 0.987014,0.26482 0.529617,0 0.987014,-0.26482 0.457397,-0.26481 0.734243,-0.77035 0.288882,-0.51758 0.288882,-1.20368 z"
                 style="font-weight:500;font-family:Poppins;-inkscape-font-specification:'Poppins Medium';fill:#d9d9d9;stroke-width:0.300919"
                 id="path66301" />
            </g>
          </g>
        </g>
      </g>
    </g>
  </g>
</svg>
